<svg xmlns="http://www.w3.org/2000/svg" xmlns:xlink="http://www.w3.org/1999/xlink" width="200" zoomAndPan="magnify" viewBox="0 0 150 37.5" height="50" preserveAspectRatio="xMidYMid meet" version="1.0"><defs><g/><clipPath id="2bed3f8d43"><path d="M 45 6 L 149.011719 6 L 149.011719 30 L 45 30 Z M 45 6 " clip-rule="nonzero"/></clipPath></defs><g fill="#ffa7e4" fill-opacity="1"><g transform="translate(46.255684, 27.631166)"><g><path d="M 9.203125 -6.875 L 14.15625 -6.875 C 14.226562 -6.875 14.296875 -6.84375 14.359375 -6.78125 C 14.421875 -6.71875 14.453125 -6.648438 14.453125 -6.578125 L 14.453125 -6.3125 C 14.453125 -5.382812 14.253906 -4.523438 13.859375 -3.734375 C 13.472656 -2.941406 12.953125 -2.242188 12.296875 -1.640625 C 11.640625 -1.035156 10.890625 -0.566406 10.046875 -0.234375 C 9.210938 0.0976562 8.335938 0.265625 7.421875 0.265625 C 6.535156 0.265625 5.671875 0.0976562 4.828125 -0.234375 C 3.984375 -0.566406 3.226562 -1.035156 2.5625 -1.640625 C 1.894531 -2.242188 1.363281 -2.941406 0.96875 -3.734375 C 0.570312 -4.523438 0.375 -5.382812 0.375 -6.3125 L 0.375 -11.21875 C 0.375 -12.113281 0.570312 -12.945312 0.96875 -13.71875 C 1.363281 -14.5 1.894531 -15.179688 2.5625 -15.765625 C 3.226562 -16.347656 3.984375 -16.804688 4.828125 -17.140625 C 5.671875 -17.472656 6.535156 -17.640625 7.421875 -17.640625 C 8.335938 -17.640625 9.210938 -17.472656 10.046875 -17.140625 C 10.890625 -16.804688 11.640625 -16.347656 12.296875 -15.765625 C 12.953125 -15.179688 13.472656 -14.5 13.859375 -13.71875 C 14.253906 -12.945312 14.453125 -12.113281 14.453125 -11.21875 L 14.453125 -10.828125 C 14.453125 -10.742188 14.421875 -10.664062 14.359375 -10.59375 C 14.296875 -10.53125 14.226562 -10.5 14.15625 -10.5 L 9.203125 -10.5 C 9.097656 -10.5 9.015625 -10.535156 8.953125 -10.609375 C 8.890625 -10.679688 8.859375 -10.765625 8.859375 -10.859375 L 8.859375 -10.953125 C 8.859375 -11.160156 8.796875 -11.363281 8.671875 -11.5625 C 8.554688 -11.769531 8.421875 -11.925781 8.265625 -12.03125 C 7.878906 -12.257812 7.507812 -12.332031 7.15625 -12.25 C 6.8125 -12.164062 6.53125 -11.992188 6.3125 -11.734375 C 6.09375 -11.472656 5.984375 -11.171875 5.984375 -10.828125 L 5.984375 -6.53125 C 5.984375 -6.164062 6.117188 -5.84375 6.390625 -5.5625 C 6.671875 -5.28125 7.015625 -5.140625 7.421875 -5.140625 C 7.796875 -5.140625 8.128906 -5.28125 8.421875 -5.5625 C 8.710938 -5.84375 8.859375 -6.164062 8.859375 -6.53125 C 8.859375 -6.757812 8.972656 -6.875 9.203125 -6.875 Z M 9.203125 -6.875 "/></g></g></g><g fill="#ffa7e4" fill-opacity="1"><g transform="translate(60.864226, 27.631166)"><g><path d="M 7.4375 -17.625 C 8.351562 -17.625 9.234375 -17.457031 10.078125 -17.125 C 10.921875 -16.789062 11.675781 -16.328125 12.34375 -15.734375 C 13.007812 -15.148438 13.535156 -14.46875 13.921875 -13.6875 C 14.316406 -12.90625 14.515625 -12.066406 14.515625 -11.171875 L 14.515625 -6.234375 C 14.515625 -5.304688 14.316406 -4.441406 13.921875 -3.640625 C 13.535156 -2.835938 13.007812 -2.132812 12.34375 -1.53125 C 11.675781 -0.925781 10.921875 -0.457031 10.078125 -0.125 C 9.234375 0.207031 8.351562 0.375 7.4375 0.375 C 6.5625 0.375 5.695312 0.207031 4.84375 -0.125 C 4 -0.457031 3.238281 -0.925781 2.5625 -1.53125 C 1.894531 -2.132812 1.363281 -2.835938 0.96875 -3.640625 C 0.570312 -4.441406 0.375 -5.304688 0.375 -6.234375 L 0.375 -11.171875 C 0.375 -12.066406 0.570312 -12.90625 0.96875 -13.6875 C 1.363281 -14.46875 1.894531 -15.148438 2.5625 -15.734375 C 3.238281 -16.328125 4 -16.789062 4.84375 -17.125 C 5.695312 -17.457031 6.5625 -17.625 7.4375 -17.625 Z M 8.890625 -6.453125 L 8.890625 -10.78125 C 8.890625 -11.175781 8.742188 -11.515625 8.453125 -11.796875 C 8.171875 -12.078125 7.832031 -12.21875 7.4375 -12.21875 C 7.039062 -12.21875 6.703125 -12.078125 6.421875 -11.796875 C 6.148438 -11.515625 6.015625 -11.175781 6.015625 -10.78125 L 6.015625 -6.453125 C 6.015625 -6.085938 6.148438 -5.765625 6.421875 -5.484375 C 6.703125 -5.203125 7.039062 -5.0625 7.4375 -5.0625 C 7.832031 -5.0625 8.171875 -5.203125 8.453125 -5.484375 C 8.742188 -5.765625 8.890625 -6.085938 8.890625 -6.453125 Z M 8.890625 -6.453125 "/></g></g></g><g fill="#ffa7e4" fill-opacity="1"><g transform="translate(75.537887, 27.631166)"><g><path d="M 7.4375 -17.625 C 8.351562 -17.625 9.234375 -17.457031 10.078125 -17.125 C 10.921875 -16.789062 11.675781 -16.328125 12.34375 -15.734375 C 13.007812 -15.148438 13.535156 -14.46875 13.921875 -13.6875 C 14.316406 -12.90625 14.515625 -12.066406 14.515625 -11.171875 L 14.515625 -6.234375 C 14.515625 -5.304688 14.316406 -4.441406 13.921875 -3.640625 C 13.535156 -2.835938 13.007812 -2.132812 12.34375 -1.53125 C 11.675781 -0.925781 10.921875 -0.457031 10.078125 -0.125 C 9.234375 0.207031 8.351562 0.375 7.4375 0.375 C 6.5625 0.375 5.695312 0.207031 4.84375 -0.125 C 4 -0.457031 3.238281 -0.925781 2.5625 -1.53125 C 1.894531 -2.132812 1.363281 -2.835938 0.96875 -3.640625 C 0.570312 -4.441406 0.375 -5.304688 0.375 -6.234375 L 0.375 -11.171875 C 0.375 -12.066406 0.570312 -12.90625 0.96875 -13.6875 C 1.363281 -14.46875 1.894531 -15.148438 2.5625 -15.734375 C 3.238281 -16.328125 4 -16.789062 4.84375 -17.125 C 5.695312 -17.457031 6.5625 -17.625 7.4375 -17.625 Z M 8.890625 -6.453125 L 8.890625 -10.78125 C 8.890625 -11.175781 8.742188 -11.515625 8.453125 -11.796875 C 8.171875 -12.078125 7.832031 -12.21875 7.4375 -12.21875 C 7.039062 -12.21875 6.703125 -12.078125 6.421875 -11.796875 C 6.148438 -11.515625 6.015625 -11.175781 6.015625 -10.78125 L 6.015625 -6.453125 C 6.015625 -6.085938 6.148438 -5.765625 6.421875 -5.484375 C 6.703125 -5.203125 7.039062 -5.0625 7.4375 -5.0625 C 7.832031 -5.0625 8.171875 -5.203125 8.453125 -5.484375 C 8.742188 -5.765625 8.890625 -6.085938 8.890625 -6.453125 Z M 8.890625 -6.453125 "/></g></g></g><g fill="#ffa7e4" fill-opacity="1"><g transform="translate(90.211548, 27.631166)"><g><path d="M 10.765625 -5.859375 C 11.171875 -5.859375 11.515625 -5.707031 11.796875 -5.40625 C 12.078125 -5.101562 12.21875 -4.75 12.21875 -4.34375 L 12.21875 -1.4375 C 12.21875 -1.039062 12.078125 -0.703125 11.796875 -0.421875 C 11.515625 -0.140625 11.171875 0 10.765625 0 L 2.15625 0 C 1.6875 0 1.328125 -0.140625 1.078125 -0.421875 C 0.835938 -0.703125 0.71875 -1.039062 0.71875 -1.4375 L 0.71875 -15.609375 C 0.71875 -16.066406 0.863281 -16.472656 1.15625 -16.828125 C 1.457031 -17.179688 1.835938 -17.359375 2.296875 -17.359375 L 4.8125 -17.359375 C 5.257812 -17.359375 5.65625 -17.179688 6 -16.828125 C 6.351562 -16.472656 6.53125 -16.066406 6.53125 -15.609375 L 6.53125 -5.859375 Z M 10.765625 -5.859375 "/></g></g></g><g fill="#ffa7e4" fill-opacity="1"><g transform="translate(102.93161, 27.631166)"><g><path d="M 7.4375 -17.625 C 8.351562 -17.625 9.234375 -17.457031 10.078125 -17.125 C 10.921875 -16.789062 11.675781 -16.328125 12.34375 -15.734375 C 13.007812 -15.148438 13.535156 -14.46875 13.921875 -13.6875 C 14.316406 -12.90625 14.515625 -12.066406 14.515625 -11.171875 L 14.515625 -6.234375 C 14.515625 -5.304688 14.316406 -4.441406 13.921875 -3.640625 C 13.535156 -2.835938 13.007812 -2.132812 12.34375 -1.53125 C 11.675781 -0.925781 10.921875 -0.457031 10.078125 -0.125 C 9.234375 0.207031 8.351562 0.375 7.4375 0.375 C 6.5625 0.375 5.695312 0.207031 4.84375 -0.125 C 4 -0.457031 3.238281 -0.925781 2.5625 -1.53125 C 1.894531 -2.132812 1.363281 -2.835938 0.96875 -3.640625 C 0.570312 -4.441406 0.375 -5.304688 0.375 -6.234375 L 0.375 -11.171875 C 0.375 -12.066406 0.570312 -12.90625 0.96875 -13.6875 C 1.363281 -14.46875 1.894531 -15.148438 2.5625 -15.734375 C 3.238281 -16.328125 4 -16.789062 4.84375 -17.125 C 5.695312 -17.457031 6.5625 -17.625 7.4375 -17.625 Z M 8.890625 -6.453125 L 8.890625 -10.78125 C 8.890625 -11.175781 8.742188 -11.515625 8.453125 -11.796875 C 8.171875 -12.078125 7.832031 -12.21875 7.4375 -12.21875 C 7.039062 -12.21875 6.703125 -12.078125 6.421875 -11.796875 C 6.148438 -11.515625 6.015625 -11.175781 6.015625 -10.78125 L 6.015625 -6.453125 C 6.015625 -6.085938 6.148438 -5.765625 6.421875 -5.484375 C 6.703125 -5.203125 7.039062 -5.0625 7.4375 -5.0625 C 7.832031 -5.0625 8.171875 -5.203125 8.453125 -5.484375 C 8.742188 -5.765625 8.890625 -6.085938 8.890625 -6.453125 Z M 8.890625 -6.453125 "/></g></g></g><g fill="#ffa7e4" fill-opacity="1"><g transform="translate(117.60527, 27.631166)"><g><path d="M 14.21875 -1.84375 C 14.332031 -1.332031 14.238281 -0.90625 13.9375 -0.5625 C 13.644531 -0.226562 13.289062 -0.0625 12.875 -0.0625 L 9.359375 -0.0625 C 8.992188 -0.0625 8.613281 -0.210938 8.21875 -0.515625 C 7.820312 -0.828125 7.5625 -1.226562 7.4375 -1.71875 L 6.875 -4.359375 L 6.703125 -5.25 C 6.703125 -5.320312 6.660156 -5.359375 6.578125 -5.359375 C 6.503906 -5.359375 6.46875 -5.316406 6.46875 -5.234375 L 6.46875 -1.609375 C 6.46875 -1.429688 6.457031 -1.269531 6.4375 -1.125 C 6.414062 -0.976562 6.300781 -0.800781 6.09375 -0.59375 C 5.945312 -0.414062 5.773438 -0.28125 5.578125 -0.1875 C 5.378906 -0.101562 5.171875 -0.0625 4.953125 -0.0625 L 2.171875 -0.0625 C 1.753906 -0.0625 1.394531 -0.207031 1.09375 -0.5 C 0.800781 -0.800781 0.65625 -1.15625 0.65625 -1.5625 L 0.65625 -15.390625 C 0.65625 -16.015625 0.800781 -16.488281 1.09375 -16.8125 C 1.394531 -17.144531 1.753906 -17.3125 2.171875 -17.3125 L 10 -17.34375 C 10.800781 -17.34375 11.519531 -17.117188 12.15625 -16.671875 C 12.800781 -16.234375 13.316406 -15.613281 13.703125 -14.8125 C 14.085938 -14.007812 14.28125 -13.050781 14.28125 -11.9375 C 14.28125 -11 14.140625 -10.171875 13.859375 -9.453125 C 13.578125 -8.734375 13.195312 -8.09375 12.71875 -7.53125 C 12.78125 -7.445312 12.832031 -7.3125 12.875 -7.125 Z M 8.4375 -11.375 C 8.4375 -11.738281 8.3125 -12.046875 8.0625 -12.296875 C 7.8125 -12.546875 7.507812 -12.671875 7.15625 -12.671875 L 6.75 -12.671875 C 6.5625 -12.671875 6.46875 -12.578125 6.46875 -12.390625 L 6.46875 -10.0625 C 6.46875 -9.875 6.5625 -9.78125 6.75 -9.78125 L 7.15625 -9.78125 C 7.507812 -9.78125 7.8125 -9.90625 8.0625 -10.15625 C 8.3125 -10.414062 8.4375 -10.71875 8.4375 -11.0625 Z M 8.4375 -11.375 "/></g></g></g><g fill="#ffa7e4" fill-opacity="1"><g transform="translate(132.38746, 27.631166)"><g><path d="M 7.59375 -18.140625 C 8.707031 -18.140625 9.648438 -18.015625 10.421875 -17.765625 C 11.203125 -17.523438 11.84375 -17.210938 12.34375 -16.828125 C 12.851562 -16.441406 13.253906 -16.03125 13.546875 -15.59375 C 13.835938 -15.164062 14.050781 -14.753906 14.1875 -14.359375 C 14.320312 -13.972656 14.410156 -13.664062 14.453125 -13.4375 C 14.484375 -13.28125 14.460938 -13.144531 14.390625 -13.03125 C 14.316406 -12.925781 14.222656 -12.863281 14.109375 -12.84375 L 8.796875 -12.109375 C 8.546875 -12.109375 8.378906 -12.234375 8.296875 -12.484375 C 8.191406 -12.765625 8.015625 -12.972656 7.765625 -13.109375 C 7.523438 -13.253906 7.316406 -13.328125 7.140625 -13.328125 C 6.910156 -13.328125 6.65625 -13.226562 6.375 -13.03125 C 6.09375 -12.832031 5.953125 -12.523438 5.953125 -12.109375 C 5.953125 -11.765625 6.046875 -11.507812 6.234375 -11.34375 C 6.429688 -11.175781 6.660156 -11.066406 6.921875 -11.015625 C 7.179688 -10.960938 7.40625 -10.9375 7.59375 -10.9375 C 7.957031 -10.9375 8.425781 -10.929688 9 -10.921875 C 9.582031 -10.921875 10.195312 -10.847656 10.84375 -10.703125 C 11.488281 -10.566406 12.09375 -10.3125 12.65625 -9.9375 C 13.226562 -9.570312 13.695312 -9.03125 14.0625 -8.3125 C 14.425781 -7.601562 14.609375 -6.660156 14.609375 -5.484375 C 14.609375 -4.304688 14.414062 -3.3125 14.03125 -2.5 C 13.644531 -1.6875 13.144531 -1.039062 12.53125 -0.5625 C 11.914062 -0.0820312 11.242188 0.257812 10.515625 0.46875 C 9.796875 0.675781 9.097656 0.78125 8.421875 0.78125 C 7.054688 0.78125 5.914062 0.644531 5 0.375 C 4.09375 0.113281 3.347656 -0.242188 2.765625 -0.703125 C 2.179688 -1.171875 1.710938 -1.691406 1.359375 -2.265625 C 1.015625 -2.847656 0.734375 -3.453125 0.515625 -4.078125 C 0.328125 -4.410156 0.398438 -4.613281 0.734375 -4.6875 L 6.546875 -5.375 C 6.710938 -5.40625 6.828125 -5.398438 6.890625 -5.359375 C 6.953125 -5.316406 7 -5.253906 7.03125 -5.171875 C 7.144531 -4.734375 7.320312 -4.457031 7.5625 -4.34375 C 7.800781 -4.238281 8.007812 -4.1875 8.1875 -4.1875 C 8.488281 -4.1875 8.757812 -4.296875 9 -4.515625 C 9.25 -4.742188 9.375 -5.03125 9.375 -5.375 C 9.375 -5.738281 9.242188 -6.019531 8.984375 -6.21875 C 8.734375 -6.425781 8.429688 -6.53125 8.078125 -6.53125 L 6.765625 -6.53125 C 5.554688 -6.53125 4.46875 -6.757812 3.5 -7.21875 C 2.53125 -7.6875 1.765625 -8.363281 1.203125 -9.25 C 0.648438 -10.144531 0.375 -11.222656 0.375 -12.484375 C 0.375 -13.492188 0.539062 -14.332031 0.875 -15 C 1.207031 -15.675781 1.640625 -16.21875 2.171875 -16.625 C 2.703125 -17.039062 3.269531 -17.359375 3.875 -17.578125 C 4.488281 -17.796875 5.070312 -17.941406 5.625 -18.015625 C 6.175781 -18.085938 6.628906 -18.125 6.984375 -18.125 C 7.347656 -18.132812 7.550781 -18.140625 7.59375 -18.140625 Z M 7.59375 -18.140625 "/></g></g></g><g clip-path="url(#2bed3f8d43)"><path stroke-linecap="butt" transform="matrix(0.740132, 0, 0, 0.740132, 44.527346, 10.805925)" fill="none" stroke-linejoin="miter" d="M 15.780553 12.707217 L 22.467498 12.707217 C 22.567776 12.707217 22.657498 12.749439 22.741943 12.833884 C 22.831665 12.918328 22.879165 13.013328 22.879165 13.113606 L 22.879165 13.461939 C 22.879165 14.712773 22.615276 15.879162 22.08222 16.961106 C 21.55972 18.032495 20.84722 18.977217 19.955276 19.789995 C 19.068609 20.597495 18.055276 21.230829 16.920553 21.67944 C 15.791109 22.128051 14.608887 22.349718 13.373887 22.349718 C 12.181109 22.349718 11.01472 22.128051 9.869442 21.67944 C 8.724164 21.230829 7.705553 20.597495 6.803053 19.789995 C 5.905831 18.977217 5.188053 18.032495 4.644442 16.961106 C 4.111386 15.879162 3.847497 14.712773 3.847497 13.461939 L 3.847497 6.83305 C 3.847497 5.619161 4.111386 4.489717 4.644442 3.444717 C 5.188053 2.399717 5.905831 1.481383 6.803053 0.689717 C 7.705553 -0.10195 8.724164 -0.724728 9.869442 -1.173339 C 11.01472 -1.62195 12.181109 -1.843617 13.373887 -1.843617 C 14.608887 -1.843617 15.791109 -1.62195 16.920553 -1.173339 C 18.055276 -0.724728 19.068609 -0.10195 19.955276 0.689717 C 20.84722 1.481383 21.55972 2.399717 22.08222 3.444717 C 22.615276 4.489717 22.879165 5.619161 22.879165 6.83305 L 22.879165 7.366106 C 22.879165 7.482217 22.831665 7.587773 22.741943 7.677495 C 22.657498 7.767217 22.567776 7.809439 22.467498 7.809439 L 15.780553 7.809439 C 15.643331 7.809439 15.52722 7.761939 15.437498 7.666939 C 15.353053 7.566661 15.310831 7.455828 15.310831 7.334439 L 15.310831 7.191939 C 15.310831 6.917495 15.231665 6.64305 15.073331 6.368606 C 14.920276 6.088884 14.735553 5.888328 14.519164 5.751106 C 13.991387 5.439717 13.489998 5.334161 13.020276 5.444995 C 12.550553 5.55055 12.170553 5.777495 11.86972 6.131106 C 11.579442 6.484717 11.436942 6.896384 11.436942 7.366106 L 11.436942 13.171662 C 11.436942 13.662495 11.621664 14.100551 11.996387 14.480551 C 12.365831 14.860551 12.824998 15.045273 13.373887 15.045273 C 13.880553 15.045273 14.329164 14.860551 14.71972 14.480551 C 15.115553 14.100551 15.310831 13.662495 15.310831 13.171662 C 15.310831 12.860273 15.469165 12.707217 15.780553 12.707217 Z M 33.144443 -1.817228 C 34.374165 -1.817228 35.561665 -1.590283 36.701665 -1.141672 C 37.846943 -0.693061 38.870832 -0.0755611 39.768054 0.716106 C 40.670554 1.51305 41.383054 2.436661 41.905555 3.497495 C 42.43861 4.55305 42.702499 5.687772 42.702499 6.896384 L 42.702499 13.578051 C 42.702499 14.834162 42.43861 16.005828 41.905555 17.087773 C 41.383054 18.169717 40.670554 19.119717 39.768054 19.932495 C 38.870832 20.739995 37.846943 21.373329 36.701665 21.827218 C 35.561665 22.275829 34.374165 22.502773 33.144443 22.502773 C 31.946387 22.502773 30.779998 22.275829 29.634721 21.827218 C 28.494721 21.373329 27.465554 20.739995 26.552498 19.932495 C 25.649998 19.119717 24.921665 18.169717 24.383332 17.087773 C 23.850276 16.005828 23.581109 14.834162 23.581109 13.578051 L 23.581109 6.896384 C 23.581109 5.687772 23.850276 4.55305 24.383332 3.497495 C 24.921665 2.436661 25.649998 1.51305 26.552498 0.716106 C 27.465554 -0.0755611 28.494721 -0.693061 29.634721 -1.141672 C 30.779998 -1.590283 31.946387 -1.817228 33.144443 -1.817228 Z M 35.102499 13.287773 L 35.102499 7.418884 C 35.102499 6.896384 34.907221 6.442495 34.516665 6.062495 C 34.131388 5.677217 33.672221 5.487217 33.144443 5.487217 C 32.595554 5.487217 32.13111 5.677217 31.761665 6.062495 C 31.392221 6.442495 31.207499 6.896384 31.207499 7.418884 L 31.207499 13.287773 C 31.207499 13.778606 31.392221 14.211384 31.761665 14.596662 C 32.13111 14.976662 32.595554 15.166662 33.144443 15.166662 C 33.672221 15.166662 34.131388 14.976662 34.516665 14.596662 C 34.907221 14.211384 35.102499 13.778606 35.102499 13.287773 Z M 52.967777 -1.817228 C 54.197499 -1.817228 55.385 -1.590283 56.525 -1.141672 C 57.670277 -0.693061 58.694166 -0.0755611 59.591389 0.716106 C 60.493889 1.51305 61.206389 2.436661 61.734166 3.497495 C 62.261944 4.55305 62.525833 5.687772 62.525833 6.896384 L 62.525833 13.578051 C 62.525833 14.834162 62.261944 16.005828 61.734166 17.087773 C 61.206389 18.169717 60.493889 19.119717 59.591389 19.932495 C 58.694166 20.739995 57.670277 21.373329 56.525 21.827218 C 55.385 22.275829 54.197499 22.502773 52.967777 22.502773 C 51.774999 22.502773 50.603333 22.275829 49.458055 21.827218 C 48.318055 21.373329 47.294166 20.739995 46.38111 19.932495 C 45.473332 19.119717 44.750277 18.169717 44.211943 17.087773 C 43.67361 16.005828 43.409721 14.834162 43.409721 13.578051 L 43.409721 6.896384 C 43.409721 5.687772 43.67361 4.55305 44.211943 3.497495 C 44.750277 2.436661 45.473332 1.51305 46.38111 0.716106 C 47.294166 -0.0755611 48.318055 -0.693061 49.458055 -1.141672 C 50.603333 -1.590283 51.774999 -1.817228 52.967777 -1.817228 Z M 54.931111 13.287773 L 54.931111 7.418884 C 54.931111 6.896384 54.735833 6.442495 54.345277 6.062495 C 53.954722 5.677217 53.495555 5.487217 52.967777 5.487217 C 52.418888 5.487217 51.959722 5.677217 51.584999 6.062495 C 51.220833 6.442495 51.03611 6.896384 51.03611 7.418884 L 51.03611 13.287773 C 51.03611 13.778606 51.220833 14.211384 51.584999 14.596662 C 51.959722 14.976662 52.418888 15.166662 52.967777 15.166662 C 53.495555 15.166662 53.954722 14.976662 54.345277 14.596662 C 54.735833 14.211384 54.931111 13.778606 54.931111 13.287773 Z M 77.2825 14.07944 C 77.826112 14.07944 78.290556 14.285273 78.670556 14.69694 C 79.055834 15.108606 79.245834 15.588884 79.245834 16.137773 L 79.245834 20.06444 C 79.245834 20.592218 79.055834 21.046106 78.670556 21.426106 C 78.290556 21.811384 77.826112 22.001384 77.2825 22.001384 L 65.639722 22.001384 C 65.011667 22.001384 64.526111 21.811384 64.193611 21.426106 C 63.866389 21.046106 63.6975 20.592218 63.6975 20.06444 L 63.6975 0.911383 C 63.6975 0.288606 63.898055 -0.265561 64.299167 -0.740561 C 64.700278 -1.226117 65.2175 -1.463617 65.840278 -1.463617 L 69.244445 -1.463617 C 69.846111 -1.463617 70.384445 -1.226117 70.854167 -0.740561 C 71.323889 -0.265561 71.561389 0.288606 71.561389 0.911383 L 71.561389 14.07944 Z M 89.980834 -1.817228 C 91.210557 -1.817228 92.398057 -1.590283 93.538057 -1.141672 C 94.683334 -0.693061 95.707223 -0.0755611 96.604446 0.716106 C 97.506946 1.51305 98.219446 2.436661 98.741946 3.497495 C 99.275001 4.55305 99.53889 5.687772 99.53889 6.896384 L 99.53889 13.578051 C 99.53889 14.834162 99.275001 16.005828 98.741946 17.087773 C 98.219446 18.169717 97.506946 19.119717 96.604446 19.932495 C 95.707223 20.739995 94.683334 21.373329 93.538057 21.827218 C 92.398057 22.275829 91.210557 22.502773 89.980834 22.502773 C 88.788056 22.502773 87.61639 22.275829 86.471112 21.827218 C 85.331112 21.373329 84.301945 20.739995 83.394167 19.932495 C 82.48639 19.119717 81.763334 18.169717 81.225001 17.087773 C 80.686667 16.005828 80.422778 14.834162 80.422778 13.578051 L 80.422778 6.896384 C 80.422778 5.687772 80.686667 4.55305 81.225001 3.497495 C 81.763334 2.436661 82.48639 1.51305 83.394167 0.716106 C 84.301945 -0.0755611 85.331112 -0.693061 86.471112 -1.141672 C 87.61639 -1.590283 88.788056 -1.817228 89.980834 -1.817228 Z M 91.944168 13.287773 L 91.944168 7.418884 C 91.944168 6.896384 91.743612 6.442495 91.353057 6.062495 C 90.967779 5.677217 90.508612 5.487217 89.980834 5.487217 C 89.431945 5.487217 88.972779 5.677217 88.598056 6.062495 C 88.228612 6.442495 88.049168 6.896384 88.049168 7.418884 L 88.049168 13.287773 C 88.049168 13.778606 88.228612 14.211384 88.598056 14.596662 C 88.972779 14.976662 89.431945 15.166662 89.980834 15.166662 C 90.508612 15.166662 90.967779 14.976662 91.353057 14.596662 C 91.743612 14.211384 91.944168 13.778606 91.944168 13.287773 Z M 118.955835 19.510273 C 119.114169 20.191106 118.99278 20.761106 118.591669 21.225551 C 118.190558 21.684718 117.705002 21.911662 117.14028 21.911662 L 112.385002 21.911662 C 111.894169 21.911662 111.382224 21.711106 110.843891 21.29944 C 110.310835 20.887773 109.962502 20.34944 109.804168 19.679162 L 109.038891 16.106106 L 108.811946 14.902773 C 108.811946 14.802495 108.748613 14.754995 108.632502 14.754995 C 108.537502 14.754995 108.490002 14.813051 108.490002 14.93444 L 108.490002 19.832218 C 108.490002 20.06444 108.468891 20.280829 108.437224 20.476106 C 108.410835 20.671384 108.257779 20.914162 107.988613 21.20444 C 107.793335 21.44194 107.555835 21.621384 107.276113 21.742773 C 107.006946 21.858884 106.721946 21.911662 106.431668 21.911662 L 102.679168 21.911662 C 102.114446 21.911662 101.62889 21.711106 101.227779 21.309995 C 100.826668 20.914162 100.626113 20.439162 100.626113 19.884995 L 100.626113 1.206939 C 100.626113 0.367772 100.826668 -0.281394 101.227779 -0.730006 C 101.62889 -1.183894 102.114446 -1.405561 102.679168 -1.405561 L 113.266391 -1.437228 C 114.343058 -1.437228 115.319446 -1.136394 116.185002 -0.540006 C 117.055835 0.0563834 117.747224 0.89555 118.264447 1.98805 C 118.781669 3.069995 119.04028 4.36305 119.04028 5.867217 C 119.04028 7.139161 118.85028 8.25805 118.47028 9.223884 C 118.09028 10.194995 117.573058 11.06055 116.929169 11.825828 C 117.013613 11.936662 117.082224 12.126662 117.14028 12.385273 Z M 111.150002 6.632495 C 111.150002 6.141661 110.981113 5.724717 110.638057 5.386939 C 110.295002 5.043884 109.893891 4.869717 109.424168 4.869717 L 108.870002 4.869717 C 108.616668 4.869717 108.490002 4.996384 108.490002 5.249717 L 108.490002 8.389995 C 108.490002 8.643328 108.616668 8.775273 108.870002 8.775273 L 109.424168 8.775273 C 109.893891 8.775273 110.295002 8.601106 110.638057 8.25805 C 110.981113 7.914995 111.150002 7.508606 111.150002 7.038884 Z M 129.986392 -2.519172 C 131.490558 -2.519172 132.762503 -2.350283 133.807503 -2.017783 C 134.852503 -1.685283 135.718058 -1.263061 136.40417 -0.740561 C 137.090281 -0.228617 137.628614 0.32555 138.01917 0.911383 C 138.409725 1.497217 138.700003 2.056661 138.884725 2.589717 C 139.074725 3.112217 139.196114 3.534439 139.25417 3.845828 C 139.291114 4.062217 139.259447 4.241661 139.15917 4.389439 C 139.06417 4.537217 138.937503 4.616384 138.77917 4.637495 L 131.596114 5.629717 C 131.263614 5.629717 131.036669 5.466106 130.925836 5.138884 C 130.783336 4.74305 130.551114 4.45805 130.213336 4.26805 C 129.886114 4.083328 129.606391 3.993606 129.368891 3.993606 C 129.052225 3.993606 128.703891 4.12555 128.323891 4.389439 C 127.943891 4.653328 127.753891 5.064995 127.753891 5.629717 C 127.753891 6.104717 127.880558 6.45305 128.144447 6.674717 C 128.413614 6.901661 128.719725 7.049439 129.068058 7.11805 C 129.421669 7.186661 129.72778 7.218328 129.986392 7.218328 C 130.471947 7.218328 131.10528 7.223606 131.891669 7.234161 C 132.672781 7.244717 133.501392 7.339717 134.366947 7.529717 C 135.237781 7.714439 136.055836 8.057495 136.83167 8.553606 C 137.602225 9.049717 138.235559 9.783328 138.721114 10.749162 C 139.211947 11.720273 139.460003 12.997495 139.460003 14.580828 C 139.460003 16.185273 139.201392 17.536384 138.678892 18.628884 C 138.16167 19.721384 137.486114 20.592218 136.652225 21.241384 C 135.823614 21.885273 134.915836 22.349718 133.939447 22.62944 C 132.963058 22.909162 132.018336 23.051662 131.094725 23.051662 C 129.258058 23.051662 127.722225 22.872218 126.492502 22.508051 C 125.257502 22.149162 124.249447 21.658329 123.45778 21.035551 C 122.660836 20.407495 122.03278 19.705551 121.563058 18.919162 C 121.098613 18.138051 120.713336 17.325273 120.41778 16.486106 C 120.164447 16.037495 120.264724 15.763051 120.713336 15.662773 L 128.577225 14.723328 C 128.788336 14.686384 128.941391 14.69694 129.025836 14.760273 C 129.115558 14.818328 129.178891 14.902773 129.221114 15.018884 C 129.379447 15.604717 129.616947 15.974162 129.933614 16.12194 C 130.260836 16.26444 130.540558 16.338328 130.77278 16.338328 C 131.184447 16.338328 131.553892 16.185273 131.881114 15.88444 C 132.218892 15.578328 132.382503 15.193051 132.382503 14.723328 C 132.382503 14.237773 132.213614 13.857773 131.870558 13.588606 C 131.527503 13.308884 131.115836 13.171662 130.63028 13.171662 L 128.867503 13.171662 C 127.226114 13.171662 125.748336 12.860273 124.434169 12.232217 C 123.130558 11.609439 122.096113 10.691106 121.341391 9.487773 C 120.591947 8.289717 120.217224 6.838328 120.217224 5.138884 C 120.217224 3.766661 120.444169 2.626661 120.89278 1.718883 C 121.341391 0.811106 121.927225 0.0774945 122.645002 -0.476672 C 123.373336 -1.036117 124.143891 -1.458339 124.967225 -1.753894 C 125.78528 -2.04945 126.571669 -2.244728 127.315836 -2.339728 C 128.060003 -2.440006 128.677503 -2.492783 129.163058 -2.503339 C 129.648614 -2.513895 129.923058 -2.519172 129.986392 -2.519172 Z M 129.986392 -2.519172 " stroke="#ff66c4" stroke-width="0.476666" stroke-opacity="1" stroke-miterlimit="4"/></g><g fill="#5ce1e6" fill-opacity="1"><g transform="translate(1.77398, 23.782475)"><g><path d="M 13.390625 -17.34375 C 13.835938 -17.34375 14.210938 -17.1875 14.515625 -16.875 C 14.816406 -16.570312 14.96875 -16.207031 14.96875 -15.78125 L 14.96875 -1.28125 C 14.96875 -0.84375 14.816406 -0.472656 14.515625 -0.171875 C 14.210938 0.128906 13.835938 0.28125 13.390625 0.28125 L 10.65625 0.28125 C 10.3125 0.28125 10.007812 0.179688 9.75 -0.015625 C 9.488281 -0.222656 9.289062 -0.476562 9.15625 -0.78125 L 6.625 -6.15625 L 6.625 -1.28125 C 6.625 -0.84375 6.46875 -0.472656 6.15625 -0.171875 C 5.851562 0.128906 5.476562 0.28125 5.03125 0.28125 L 2.296875 0.28125 C 1.867188 0.28125 1.5 0.128906 1.1875 -0.171875 C 0.875 -0.472656 0.71875 -0.84375 0.71875 -1.28125 L 0.71875 -15.78125 C 0.71875 -16.207031 0.875 -16.570312 1.1875 -16.875 C 1.5 -17.1875 1.867188 -17.34375 2.296875 -17.34375 L 5.03125 -17.34375 C 5.363281 -17.34375 5.664062 -17.25 5.9375 -17.0625 C 6.21875 -16.875 6.414062 -16.628906 6.53125 -16.328125 L 9.078125 -10.671875 L 9.078125 -15.78125 C 9.078125 -16.207031 9.234375 -16.570312 9.546875 -16.875 C 9.867188 -17.1875 10.238281 -17.34375 10.65625 -17.34375 Z M 13.390625 -17.34375 "/></g></g></g><g fill="#5ce1e6" fill-opacity="1"><g transform="translate(17.25079, 23.782475)"><g><path d="M 7.4375 -17.625 C 8.351562 -17.625 9.234375 -17.457031 10.078125 -17.125 C 10.921875 -16.789062 11.675781 -16.328125 12.34375 -15.734375 C 13.007812 -15.148438 13.535156 -14.46875 13.921875 -13.6875 C 14.316406 -12.90625 14.515625 -12.066406 14.515625 -11.171875 L 14.515625 -6.234375 C 14.515625 -5.304688 14.316406 -4.441406 13.921875 -3.640625 C 13.535156 -2.835938 13.007812 -2.132812 12.34375 -1.53125 C 11.675781 -0.925781 10.921875 -0.457031 10.078125 -0.125 C 9.234375 0.207031 8.351562 0.375 7.4375 0.375 C 6.5625 0.375 5.695312 0.207031 4.84375 -0.125 C 4 -0.457031 3.238281 -0.925781 2.5625 -1.53125 C 1.894531 -2.132812 1.363281 -2.835938 0.96875 -3.640625 C 0.570312 -4.441406 0.375 -5.304688 0.375 -6.234375 L 0.375 -11.171875 C 0.375 -12.066406 0.570312 -12.90625 0.96875 -13.6875 C 1.363281 -14.46875 1.894531 -15.148438 2.5625 -15.734375 C 3.238281 -16.328125 4 -16.789062 4.84375 -17.125 C 5.695312 -17.457031 6.5625 -17.625 7.4375 -17.625 Z M 8.890625 -6.453125 L 8.890625 -10.78125 C 8.890625 -11.175781 8.742188 -11.515625 8.453125 -11.796875 C 8.171875 -12.078125 7.832031 -12.21875 7.4375 -12.21875 C 7.039062 -12.21875 6.703125 -12.078125 6.421875 -11.796875 C 6.148438 -11.515625 6.015625 -11.175781 6.015625 -10.78125 L 6.015625 -6.453125 C 6.015625 -6.085938 6.148438 -5.765625 6.421875 -5.484375 C 6.703125 -5.203125 7.039062 -5.0625 7.4375 -5.0625 C 7.832031 -5.0625 8.171875 -5.203125 8.453125 -5.484375 C 8.742188 -5.765625 8.890625 -6.085938 8.890625 -6.453125 Z M 8.890625 -6.453125 "/></g></g></g><g fill="#5ce1e6" fill-opacity="1"><g transform="translate(31.92445, 23.782475)"><g><path d="M 14.546875 -17.359375 C 14.960938 -17.359375 15.316406 -17.207031 15.609375 -16.90625 C 15.910156 -16.613281 16.0625 -16.257812 16.0625 -15.84375 L 16.0625 -12.875 C 16.0625 -12.46875 15.910156 -12.109375 15.609375 -11.796875 C 15.316406 -11.492188 14.960938 -11.34375 14.546875 -11.34375 L 11.5625 -11.34375 C 11.445312 -11.34375 11.390625 -11.296875 11.390625 -11.203125 L 11.390625 -1.46875 C 11.390625 -1.070312 11.238281 -0.71875 10.9375 -0.40625 C 10.644531 -0.101562 10.289062 0.046875 9.875 0.046875 L 6.921875 0.046875 C 6.484375 0.046875 6.113281 -0.101562 5.8125 -0.40625 C 5.519531 -0.71875 5.375 -1.070312 5.375 -1.46875 L 5.375 -11.203125 C 5.375 -11.296875 5.328125 -11.34375 5.234375 -11.34375 L 2.234375 -11.34375 C 1.828125 -11.34375 1.472656 -11.492188 1.171875 -11.796875 C 0.867188 -12.109375 0.71875 -12.46875 0.71875 -12.875 L 0.71875 -15.84375 C 0.71875 -16.257812 0.867188 -16.613281 1.171875 -16.90625 C 1.472656 -17.207031 1.828125 -17.359375 2.234375 -17.359375 Z M 14.546875 -17.359375 "/></g></g></g><path stroke-linecap="butt" transform="matrix(0.740132, 0, 0, 0.740132, -0.601974, 6.957234)" fill="none" stroke-linejoin="miter" d="M 22.315001 -1.43583 C 22.921945 -1.43583 23.428612 -1.229996 23.840279 -0.823607 C 24.251945 -0.411941 24.452501 0.0894483 24.452501 0.675282 L 24.452501 20.266394 C 24.452501 20.852227 24.251945 21.353616 23.840279 21.765283 C 23.428612 22.171671 22.921945 22.377505 22.315001 22.377505 L 18.620556 22.377505 C 18.150834 22.377505 17.739167 22.24556 17.385556 21.971116 C 17.031945 21.696671 16.773334 21.358894 16.599167 20.947227 L 13.163334 13.674449 L 13.163334 20.266394 C 13.163334 20.852227 12.9575 21.353616 12.545834 21.765283 C 12.134167 22.171671 11.6275 22.377505 11.020556 22.377505 L 7.326111 22.377505 C 6.740278 22.377505 6.233611 22.171671 5.816667 21.765283 C 5.394444 21.353616 5.183333 20.852227 5.183333 20.266394 L 5.183333 0.675282 C 5.183333 0.0894483 5.394444 -0.411941 5.816667 -0.823607 C 6.233611 -1.229996 6.740278 -1.43583 7.326111 -1.43583 L 11.020556 -1.43583 C 11.469167 -1.43583 11.880834 -1.309163 12.255556 -1.050552 C 12.625 -0.797218 12.888889 -0.464718 13.047223 -0.0530517 L 16.477778 7.573338 L 16.477778 0.675282 C 16.477778 0.0894483 16.694167 -0.411941 17.121667 -0.823607 C 17.554445 -1.229996 18.050556 -1.43583 18.620556 -1.43583 Z M 35.192779 -1.81583 C 36.422501 -1.81583 37.610001 -1.594163 38.750001 -1.145552 C 39.895279 -0.696941 40.91389 -0.0741628 41.81639 0.717504 C 42.713613 1.509171 43.431391 2.43806 43.953891 3.498893 C 44.486946 4.554448 44.750835 5.683893 44.750835 6.897782 L 44.750835 13.579449 C 44.750835 14.83556 44.486946 16.001949 43.953891 17.089171 C 43.431391 18.171116 42.713613 19.121116 41.81639 19.928616 C 40.91389 20.741394 39.895279 21.374727 38.750001 21.828616 C 37.610001 22.277227 36.422501 22.498894 35.192779 22.498894 C 33.994723 22.498894 32.828335 22.277227 31.683057 21.828616 C 30.543057 21.374727 29.51389 20.741394 28.600834 19.928616 C 27.693057 19.121116 26.970001 18.171116 26.431668 17.089171 C 25.898612 16.001949 25.629445 14.83556 25.629445 13.579449 L 25.629445 6.897782 C 25.629445 5.683893 25.898612 4.554448 26.431668 3.498893 C 26.970001 2.43806 27.693057 1.509171 28.600834 0.717504 C 29.51389 -0.0741628 30.543057 -0.696941 31.683057 -1.145552 C 32.828335 -1.594163 33.994723 -1.81583 35.192779 -1.81583 Z M 37.150835 13.283893 L 37.150835 7.420282 C 37.150835 6.897782 36.955557 6.443893 36.565001 6.058615 C 36.179724 5.678615 35.720557 5.488615 35.192779 5.488615 C 34.64389 5.488615 34.179446 5.678615 33.810001 6.058615 C 33.440557 6.443893 33.255835 6.897782 33.255835 7.420282 L 33.255835 13.283893 C 33.255835 13.774727 33.440557 14.212782 33.810001 14.59806 C 34.179446 14.97806 34.64389 15.16806 35.192779 15.16806 C 35.720557 15.16806 36.179724 14.97806 36.565001 14.59806 C 36.955557 14.212782 37.150835 13.774727 37.150835 13.283893 Z M 64.605836 -1.467496 C 65.170558 -1.467496 65.656114 -1.266941 66.057225 -0.86583 C 66.458336 -0.464718 66.658891 0.0208372 66.658891 0.590837 L 66.658891 4.607226 C 66.658891 5.156115 66.458336 5.636393 66.057225 6.04806 C 65.656114 6.454449 65.170558 6.660282 64.605836 6.660282 L 60.589447 6.660282 C 60.431113 6.660282 60.351947 6.728893 60.351947 6.860837 L 60.351947 20.002505 C 60.351947 20.551394 60.151391 21.031671 59.75028 21.443338 C 59.349169 21.849727 58.863613 22.05556 58.304169 22.05556 L 54.314169 22.05556 C 53.728335 22.05556 53.232224 21.849727 52.831113 21.443338 C 52.430002 21.031671 52.229446 20.551394 52.229446 20.002505 L 52.229446 6.860837 C 52.229446 6.728893 52.160835 6.660282 52.023613 6.660282 L 47.975557 6.660282 C 47.426668 6.660282 46.946391 6.454449 46.540002 6.04806 C 46.128335 5.636393 45.922502 5.156115 45.922502 4.607226 L 45.922502 0.590837 C 45.922502 0.0208372 46.128335 -0.464718 46.540002 -0.86583 C 46.946391 -1.266941 47.426668 -1.467496 47.975557 -1.467496 Z M 64.605836 -1.467496 " stroke="#b2edef" stroke-width="0.476666" stroke-opacity="1" stroke-miterlimit="4"/></svg>